/* XPM */
static char *_73400d4730c4708eee63faf19200603uzKlNWXdX5JElRVv[] = {
/* columns rows colors chars-per-pixel */
"15 13 5 1 ",
"  c None",
". c #181425",
"X c #2F5753",
"o c #3B7D4F",
"O c #63AB3F",
/* pixels */
"     .....     ",
"   .XoOOOoX.   ",
"  .XoOOOOOoX.  ",
" .XoooOOOoooX. ",
" XooooooooXooX ",
".XoooXooooXooX.",
".XXooXoooooXXX.",
".XoXXooooooooX.",
".XoooooXooXooX.",
" XoooooXooXooX ",
" .XoooooXXooX. ",
"  .XoooooooX.  ",
"    ..XXX..    "
};
